<svg width="150" height="150" enable-background="new 0 0 511.999 511.999" viewBox="0 0 511.999 511.999" xmlns="http://www.w3.org/2000/svg"><circle cx="255.999" cy="255.999" fill="#263740" r="255.999"/><path d="m240.003 360h47.999v16h-47.999z" fill="#cc584c"/><path d="m147.997 327.997h143.996v16h-143.996z" fill="#cc584c"/><path d="m216.004 392.002h43.997v16h-43.997z" fill="#cc584c"/><path d="m104 104h88.004v16h-88.004z" fill="#cc584c"/><path d="m104 68h39.995v16h-39.995z" fill="#cc584c"/><path d="m160.002 392.002h43.997v16h-43.997z" fill="#cc584c"/><path d="m472 328v16h24.472c1.916-5.252 3.604-10.6 5.188-16z" fill="#cc584c"/><path d="m464 232v16h47.796c-.164-5.376-.46-10.716-.952-16z" fill="#cc584c"/><path d="m147.997 360h68v16h-68z" fill="#cc584c"/><path d="m104 136.003h156.001v16h-156.001z" fill="#cc584c"/><path d="m167.995 455.997h68v16h-68z" fill="#cc584c"/><path d="m255.999 455.997h20v16h-20z" fill="#cc584c"/><path d="m104 424.005h88.004v16h-88.004z" fill="#cc584c"/><path d="m104 392.002h43.997v16h-43.997z" fill="#cc584c"/><path d="m300 488h-152.232c14.184 6.628 29.056 12.04 44.512 16h107.72z" fill="#cc584c"/><path d="m208.001 167.995h28v16h-28z" fill="#cc584c"/><path d="m368.003 264.003h43.997v16h-43.997z" fill="#cc584c"/><path d="m3.132 216h76.868v-16h-73.78c-1.18 5.28-2.24 10.6-3.088 16z" fill="#cc584c"/><path d="m104 167.995h88.004v16h-88.004z" fill="#cc584c"/><path d="m84.003 232h191.995v16h-191.995z" fill="#cc584c"/><path d="m255.999 68h20v16h-20z" fill="#cc584c"/><path d="m6.22 312h185.78v-16h-188.868c.848 5.4 1.908 10.72 3.088 16z" fill="#cc584c"/><path d="m255.999 167.995h80.001v16h-80.001z" fill="#cc584c"/><g fill="#f5f5f5"><path d="m312.001 199.998h140.004v16h-140.004z"/><path d="m388 152h101.916c-2.416-5.428-5-10.772-7.772-16h-94.144z"/><path d="m428 280h82.844c.492-5.284.788-10.624.952-16h-83.797v16z"/><path d="m320.004 264.003h36v16h-36z"/><path d="m147.997 264.003h156.001v16h-156.001z"/><path d="m312.001 104h140.004v16h-140.004z"/><path d="m160.002 68h80.001v16h-80.001z"/><path d="m212.002 104h80.001v16h-80.001z"/><path d="m299.997 68h80.001v16h-80.001z"/><path d="m508.868 296h-300.868v16h297.78c1.18-5.28 2.24-10.6 3.088-16z"/><path d="m383.999 327.997h68v16h-68z"/><path d="m78.108 440h9.892v-16h-25.072c4.832 5.548 9.896 10.888 15.18 16z"/><path d="m312.001 360h140.004v16h-140.004z"/><path d="m436 184.001h65.664c-1.58-5.4-3.264-10.752-5.188-16h-60.476z"/><path d="m292.004 232h160.002v16h-160.002z"/><path d="m292.004 136.003h72v16h-72z"/><path d="m160.002 199.998h140.005v16h-140.005z"/><path d="m355.998 167.995h32v16h-32z"/><path d="m303.998 327.997h68v16h-68z"/><path d="m312 456v16h81.328c7.756-4.94 15.228-10.276 22.384-16z"/><path d="m20 248v-16h-18.844c-.492 5.284-.788 10.624-.952 16z"/><path d="m312 488v16h7.72c15.46-3.96 30.328-9.372 44.516-16z"/><path d="m156 456h-59.712c7.16 5.724 14.628 11.06 22.384 16h37.328z"/><path d="m223.997 424.005h64.005v16h-64.005z"/><path d="m476 360v16h6.14c2.772-5.228 5.356-10.568 7.772-16z"/><path d="m312.001 424.005h64.005v16h-64.005z"/><path d="m492 200v16h16.868c-.848-5.4-1.908-10.72-3.084-16z"/><path d="m280 392v16h181.972c3.832-5.18 7.44-10.532 10.876-16z"/><path d="m104 199.998h39.995v16h-39.995z"/><path d="m80 360h-57.916c2.42 5.432 5 10.772 7.776 16h50.14z"/><path d="m80 408v-16h-40.847c3.436 5.468 7.048 10.82 10.876 16z"/><path d="m28 232h36v16h-36z"/><path d="m128 328h-117.664c1.58 5.4 3.268 10.752 5.188 16h112.476z"/><path d="m39.153 120h40.847v-16h-29.972c-3.832 5.18-7.44 10.533-10.875 16z"/><path d="m1.156 280h122.844v-16h-123.796c.164 5.376.46 10.717.952 16z"/><path d="m80 152v-16h-50.141c-2.776 5.228-5.356 10.572-7.776 16z"/><path d="m80 184.001v-16h-64.472c-1.92 5.252-3.608 10.6-5.188 16z"/></g></svg>