<svg height="87.5" viewBox="0 0 787.5 87.5" width="787.5" xmlns="http://www.w3.org/2000/svg"><path d="m587.5 87.5h-87.5v-12.5h12.5v-12.5h12.5v-12.5h12.5v-12.5h-37.5v-12.5h87.5v12.5h-12.5v12.5h-12.5v12.5h-12.5v12.5h37.5zm-525-25h-37.5v-12.5h25v-12.5h12.5v-12.5h-37.5v12.5h-25v-25h12.5v-12.5h62.5v12.5h12.5v25h-12.5v12.5h-12.5zm212.5 25h-62.5v-12.5h-12.5v-37.5h12.5v-12.5h62.5v12.5h12.5v25h-62.5v12.5h50zm400 0h-62.5v-12.5h-12.5v-37.5h12.5v-12.5h62.5v12.5h12.5v25h-62.5v12.5h50zm-500 0h-62.5v-12.5h-12.5v-75h25v25h50v12.5h12.5v37.5h-12.5zm212.5 0h-75v-12.5h25v-62.5h-12.5v-12.5h37.5v75h25zm100 0h-75v-12.5h25v-37.5h-12.5v-12.5h37.5v50h25zm250-62.5v12.5h12.5v12.5h-12.5v37.5h-25v-62.5zm-612.5 12.5v37.5h37.5v-37.5zm-62.5 50h-37.5v-12.5h37.5zm162.5-50v12.5h37.5v-12.5zm400 0v12.5h37.5v-12.5zm125 0h37.5v-12.5h-37.5zm-287.5-25h-25v-12.5h25z" fill="#fff" fill-rule="evenodd" stroke="#000" stroke-linecap="round" stroke-width=".25mm"/></svg>